<?xml version="1.0" encoding="UTF-8" standalone="no"?>
<svg
   xmlns:dc="http://purl.org/dc/elements/1.1/"
   xmlns:cc="http://creativecommons.org/ns#"
   xmlns:rdf="http://www.w3.org/1999/02/22-rdf-syntax-ns#"
   xmlns:svg="http://www.w3.org/2000/svg"
   xmlns="http://www.w3.org/2000/svg"
   xmlns:sodipodi="http://sodipodi.sourceforge.net/DTD/sodipodi-0.dtd"
   xmlns:inkscape="http://www.inkscape.org/namespaces/inkscape"
   width="114.33811mm"
   height="155.76489mm"
   viewBox="0 0 114.33811 155.76489"
   version="1.1"
   id="svg8"
   inkscape:version="1.0.2 (e86c870879, 2021-01-15, custom)"
   sodipodi:docname="icon.svg">
  <defs
     id="defs2" />
  <sodipodi:namedview
     id="base"
     pagecolor="#ffffff"
     bordercolor="#666666"
     borderopacity="1.0"
     inkscape:pageopacity="0.0"
     inkscape:pageshadow="2"
     inkscape:zoom="0.98994949"
     inkscape:cx="-120.42469"
     inkscape:cy="195.52872"
     inkscape:document-units="mm"
     inkscape:current-layer="layer1"
     inkscape:document-rotation="0"
     showgrid="false"
     fit-margin-top="0"
     fit-margin-left="0"
     fit-margin-right="0"
     fit-margin-bottom="0"
     inkscape:window-width="1920"
     inkscape:window-height="1027"
     inkscape:window-x="-8"
     inkscape:window-y="-8"
     inkscape:window-maximized="1" />
  <metadata
     id="metadata5">
    <rdf:RDF>
      <cc:Work
         rdf:about="">
        <dc:format>image/svg+xml</dc:format>
        <dc:type
           rdf:resource="http://purl.org/dc/dcmitype/StillImage" />
        <dc:title></dc:title>
      </cc:Work>
    </rdf:RDF>
  </metadata>
  <g
     inkscape:label="Layer 1"
     inkscape:groupmode="layer"
     id="layer1"
     transform="translate(-41.4534,-25.95177)">
    <rect
       style="fill:none;stroke:#000000;stroke-width:3.15399;stroke-miterlimit:4.3;stroke-dasharray:75.696, 3.15399;stroke-dashoffset:19.2395"
       id="rect14"
       width="111.18412"
       height="152.6109"
       x="43.030396"
       y="27.528765" />
    <rect
       style="fill:#008000;stroke:none;stroke-width:3.15399;stroke-miterlimit:4.3;stroke-dasharray:75.696, 3.15399;stroke-dashoffset:19.2395"
       id="rect16"
       width="88.198944"
       height="18.708866"
       x="53.988441"
       y="41.961315" />
    <g
       id="g73"
       transform="translate(-2.4722414)">
      <rect
         style="fill:#b3b3b3;stroke:none;stroke-width:3.15399;stroke-miterlimit:4.3;stroke-dasharray:75.696, 3.15399;stroke-dashoffset:19.2395"
         id="rect18"
         width="17.372519"
         height="16.036171"
         x="55.057522"
         y="74.568199" />
      <rect
         style="fill:#b3b3b3;stroke:none;stroke-width:3.15399;stroke-miterlimit:4.3;stroke-dasharray:75.696, 3.15399;stroke-dashoffset:19.2395"
         id="rect18-6"
         width="17.372519"
         height="16.036171"
         x="79.958138"
         y="74.568199" />
      <rect
         style="fill:#b3b3b3;stroke:none;stroke-width:3.15399;stroke-miterlimit:4.3;stroke-dasharray:75.696, 3.15399;stroke-dashoffset:19.2395"
         id="rect18-6-9"
         width="17.372519"
         height="16.036171"
         x="104.85874"
         y="74.568199" />
      <rect
         style="fill:#b3b3b3;stroke:none;stroke-width:3.15399;stroke-miterlimit:4.3;stroke-dasharray:75.696, 3.15399;stroke-dashoffset:19.2395"
         id="rect18-6-4"
         width="17.372519"
         height="16.036171"
         x="129.75935"
         y="74.568199" />
    </g>
    <g
       id="g83"
       transform="translate(-2.4722414,24.41062)">
      <rect
         style="fill:#b3b3b3;stroke:none;stroke-width:3.15399;stroke-miterlimit:4.3;stroke-dasharray:75.696, 3.15399;stroke-dashoffset:19.2395"
         id="rect75"
         width="17.372519"
         height="16.036171"
         x="55.057522"
         y="74.568199" />
      <rect
         style="fill:#b3b3b3;stroke:none;stroke-width:3.15399;stroke-miterlimit:4.3;stroke-dasharray:75.696, 3.15399;stroke-dashoffset:19.2395"
         id="rect77"
         width="17.372519"
         height="16.036171"
         x="79.958138"
         y="74.568199" />
      <rect
         style="fill:#b3b3b3;stroke:none;stroke-width:3.15399;stroke-miterlimit:4.3;stroke-dasharray:75.696, 3.15399;stroke-dashoffset:19.2395"
         id="rect79"
         width="17.372519"
         height="16.036171"
         x="104.85874"
         y="74.568199" />
      <rect
         style="fill:#b3b3b3;stroke:none;stroke-width:3.15399;stroke-miterlimit:4.3;stroke-dasharray:75.696, 3.15399;stroke-dashoffset:19.2395"
         id="rect81"
         width="17.372519"
         height="16.036171"
         x="129.75935"
         y="74.568199" />
    </g>
    <g
       id="g93"
       transform="translate(-2.4722414,48.821233)">
      <rect
         style="fill:#b3b3b3;stroke:none;stroke-width:3.15399;stroke-miterlimit:4.3;stroke-dasharray:75.696, 3.15399;stroke-dashoffset:19.2395"
         id="rect85"
         width="17.372519"
         height="16.036171"
         x="55.057522"
         y="74.568199" />
      <rect
         style="fill:#b3b3b3;stroke:none;stroke-width:3.15399;stroke-miterlimit:4.3;stroke-dasharray:75.696, 3.15399;stroke-dashoffset:19.2395"
         id="rect87"
         width="17.372519"
         height="16.036171"
         x="79.958138"
         y="74.568199" />
      <rect
         style="fill:#b3b3b3;stroke:none;stroke-width:3.15399;stroke-miterlimit:4.3;stroke-dasharray:75.696, 3.15399;stroke-dashoffset:19.2395"
         id="rect89"
         width="17.372519"
         height="16.036171"
         x="104.85874"
         y="74.568199" />
      <rect
         style="fill:#b3b3b3;stroke:none;stroke-width:3.15399;stroke-miterlimit:4.3;stroke-dasharray:75.696, 3.15399;stroke-dashoffset:19.2395"
         id="rect91"
         width="17.372519"
         height="16.036171"
         x="129.75935"
         y="74.568199" />
    </g>
    <g
       id="g103"
       transform="translate(-2.4722414,73.231851)">
      <rect
         style="fill:#b3b3b3;stroke:none;stroke-width:3.15399;stroke-miterlimit:4.3;stroke-dasharray:75.696, 3.15399;stroke-dashoffset:19.2395"
         id="rect95"
         width="17.372519"
         height="16.036171"
         x="55.057522"
         y="74.568199" />
      <rect
         style="fill:#b3b3b3;stroke:none;stroke-width:3.15399;stroke-miterlimit:4.3;stroke-dasharray:75.696, 3.15399;stroke-dashoffset:19.2395"
         id="rect97"
         width="17.372519"
         height="16.036171"
         x="79.958138"
         y="74.568199" />
      <rect
         style="fill:#b3b3b3;stroke:none;stroke-width:3.15399;stroke-miterlimit:4.3;stroke-dasharray:75.696, 3.15399;stroke-dashoffset:19.2395"
         id="rect99"
         width="17.372519"
         height="16.036171"
         x="104.85874"
         y="74.568199" />
      <rect
         style="fill:#b3b3b3;stroke:none;stroke-width:3.15399;stroke-miterlimit:4.3;stroke-dasharray:75.696, 3.15399;stroke-dashoffset:19.2395"
         id="rect101"
         width="17.372519"
         height="16.036171"
         x="129.75935"
         y="74.568199" />
    </g>
    <path
       id="path105"
       style="color:#000000;font-style:normal;font-variant:normal;font-weight:normal;font-stretch:normal;font-size:medium;line-height:normal;font-family:sans-serif;font-variant-ligatures:normal;font-variant-position:normal;font-variant-caps:normal;font-variant-numeric:normal;font-variant-alternates:normal;font-variant-east-asian:normal;font-feature-settings:normal;font-variation-settings:normal;text-indent:0;text-align:start;text-decoration:none;text-decoration-line:none;text-decoration-style:solid;text-decoration-color:#000000;letter-spacing:normal;word-spacing:normal;text-transform:none;writing-mode:lr-tb;direction:ltr;text-orientation:mixed;dominant-baseline:auto;baseline-shift:baseline;text-anchor:start;white-space:normal;shape-padding:0;shape-margin:0;inline-size:0;clip-rule:nonzero;display:inline;overflow:visible;visibility:visible;opacity:1;isolation:auto;mix-blend-mode:normal;color-interpolation:sRGB;color-interpolation-filters:linearRGB;solid-color:#000000;solid-opacity:1;vector-effect:none;fill:#a02c2c;fill-opacity:1;fill-rule:nonzero;stroke:none;stroke-width:1.61235;stroke-linecap:butt;stroke-linejoin:miter;stroke-miterlimit:4;stroke-dasharray:none;stroke-dashoffset:0;stroke-opacity:1;color-rendering:auto;image-rendering:auto;shape-rendering:auto;text-rendering:auto;enable-background:accumulate;stop-color:#000000;stop-opacity:1"
       d="m 85.318879,28.886544 -9.595194,1.225637 0.518256,4.065216 c 3.018589,-0.740332 6.243638,-1.118356 9.609356,-1.119001 z m 0.532418,4.171852 1.265641,9.923481 c 2.148567,0.05369 4.399889,0.304315 6.720632,0.75655 L 92.536102,33.53749 c -1.705737,-0.241302 -3.389176,-0.393804 -5.040889,-0.453263 -0.551916,-0.0199 -1.09913,-0.02592 -1.643916,-0.02581 z m 6.684805,0.479094 c 3.285195,0.464745 6.656045,1.270365 10.061788,2.433799 l -0.90319,-7.084745 -9.595194,1.225637 z m 10.061788,2.433799 1.40229,10.991651 c 4.71453,2.084373 9.55846,5.055292 14.3503,9.078601 l 6.21905,-7.409696 C 117.4384,42.644426 109.93922,38.479135 102.59789,35.971289 Z m 1.40229,10.991651 c -3.48402,-1.540353 -6.894123,-2.587592 -10.16261,-3.224513 l 7.33554,57.520353 c 0.66515,0.3957 1.33401,0.79179 2.02053,1.18816 3.04838,1.75997 5.89205,3.50572 8.55035,5.23836 z m 7.74381,60.72236 1.65891,13.00466 c 10.05189,7.59536 15.66155,14.46983 18.02558,19.91529 3.35372,7.72516 1.49081,12.31586 -3.47947,16.27416 -2.35171,1.87291 -5.5903,3.38624 -9.37439,4.36435 l 1.2423,9.73768 c 5.37632,-1.22229 10.22519,-3.40074 14.15949,-6.53403 7.67772,-6.11449 11.05826,-16.7947 6.32654,-27.69408 -4.03944,-9.30468 -13.04822,-18.9584 -28.55896,-29.06803 z m 8.07293,63.29614 c -3.05461,0.69442 -6.27869,1.08054 -9.60436,1.15481 l 0.84738,6.64564 9.59519,-1.22482 z m -9.60436,1.15481 -1.23564,-9.68602 c -1.51729,0.01 -3.0658,-0.0522 -4.64012,-0.21078 -0.67754,-0.0683 -1.35945,-0.1555 -2.04303,-0.25499 l 1.26231,9.89766 c 2.24883,0.21919 4.47413,0.30285 6.65648,0.25413 z m -6.65648,-0.25413 c -0.0632,-0.007 -0.12586,-0.01 -0.18914,-0.0159 -3.23282,-0.32576 -6.522393,-0.94313 -9.80266,-1.8689 l 1.120663,8.78448 9.595197,-1.22481 z m -9.9918,-1.88472 -1.356454,-10.6367 c -5.83134,-2.21014 -11.520787,-5.64829 -16.49664,-10.50838 l -6.758132,6.92228 c 7.334096,7.16349 15.941094,11.77594 24.611226,14.2228 z m -1.356454,-10.6367 c 3.351411,1.2702 6.748141,2.13796 10.085944,2.62376 L 95.558977,109.17423 C 91.715533,106.87018 88.175025,104.56601 84.9256,102.26446 Z M 84.9256,102.26446 83.198374,88.719036 C 75.425549,82.217943 70.385666,76.069919 67.533271,70.678466 62.726975,61.593839 63.684227,55.14571 67.309138,50.442403 c 2.176465,-2.823972 5.728237,-5.056561 10.200937,-6.324028 l -1.268134,-9.940978 c -6.841967,1.678036 -12.626458,5.205202 -16.597459,10.357573 -6.006536,7.793482 -6.7418,19.176903 -0.661569,30.669465 4.638749,8.767943 12.990261,17.885881 25.942687,27.060025 z m -7.415525,-58.146085 5.688299,44.600661 c 3.133187,2.620563 6.715535,5.298781 10.772505,8.007939 L 87.116938,42.981877 c -3.506672,-0.08771 -6.745238,0.325563 -9.606863,1.136498 z m 16.460804,52.6086 1.588098,12.447255 c 0.91729,0.5499 1.84576,1.10004 2.7979,1.64974 1.51637,0.87548 2.967873,1.74507 4.369343,2.60961 l -1.55311,-12.1748 c -2.550313,-1.517225 -4.951853,-3.029065 -7.202231,-4.531805 z m 8.755341,16.706605 6.2507,49.01665 c 3.42946,-0.0215 6.67656,-0.45143 9.5977,-1.20647 l -5.17172,-40.5538 c -3.1186,-2.35646 -6.66551,-4.78194 -10.67668,-7.25638 z" />
  </g>
</svg>
